<svg xmlns="http://www.w3.org/2000/svg" viewBox="0 0 390 844" width="390" height="844">
  <rect width="390" height="844" fill="#f4f1ea"/>
  <rect width="390" height="168" fill="#1e4d22"/>
  <rect x="18" y="22" width="34" height="34" rx="10" fill="#7cb342"/>
  <text x="60" y="45" font-family="Segoe UI, Arial" font-size="18" font-weight="700" fill="#fff">AgriInfo</text>
  <rect x="292" y="24" width="80" height="28" rx="14" fill="#2f6b32"/>
  <text x="310" y="43" font-family="Segoe UI, Arial" font-size="12" font-weight="600" fill="#fff">Theme</text>
  <text x="18" y="86" font-family="Segoe UI, Arial" font-size="13" fill="#c5e1a5">Region</text>
  <rect x="78" y="68" width="150" height="28" rx="8" fill="#fff"/>
  <text x="90" y="87" font-family="Segoe UI, Arial" font-size="13" fill="#1c2a1a">Centre</text>
  <rect x="240" y="68" width="132" height="28" rx="14" fill="none" stroke="#c5e1a5" stroke-dasharray="3 2"/>
  <text x="256" y="87" font-family="Segoe UI, Arial" font-size="12" fill="#c5e1a5">anonyme007</text>
  <text x="18" y="130" font-family="Segoe UI, Arial" font-size="13" fill="#c5e1a5">Langue</text>
  <rect x="78" y="112" width="150" height="28" rx="8" fill="#fff"/>
  <text x="90" y="131" font-family="Segoe UI, Arial" font-size="13" fill="#1c2a1a">Francais</text>
  <rect x="16" y="188" width="358" height="330" rx="22" fill="#f3f6e6" stroke="#d7e0d1"/>
  <text x="32" y="230" font-family="Segoe UI, Arial" font-size="24" font-weight="800" fill="#1c2a1a">Conseils agricoles pour</text>
  <text x="32" y="260" font-family="Segoe UI, Arial" font-size="24" font-weight="800" fill="#1c2a1a">le Burkina Faso</text>
  <text x="32" y="296" font-family="Segoe UI, Arial" font-size="13" fill="#5b6857">Des infos simples selon ta region :</text>
  <text x="32" y="314" font-family="Segoe UI, Arial" font-size="13" fill="#5b6857">cultures, techniques, alertes.</text>
  <rect x="32" y="334" width="220" height="40" rx="14" fill="#fff" stroke="#d7e0d1"/>
  <text x="44" y="359" font-family="Segoe UI, Arial" font-size="12" fill="#8a9586">Rechercher une culture</text>
  <rect x="258" y="334" width="100" height="40" rx="14" fill="#2f6b32"/>
  <text x="274" y="359" font-family="Segoe UI, Arial" font-size="13" font-weight="700" fill="#fff">Chercher</text>
  <text x="32" y="400" font-family="Segoe UI, Arial" font-size="12" fill="#5b6857">Ta zone climatique : Centre / Est / Mouhoun</text>
  <text x="32" y="430" font-family="Segoe UI, Arial" font-size="12" fill="#5b6857">Pas de compte. Projet libre. Tes choix restent sur ce telephone.</text>
  <rect x="32" y="452" width="150" height="40" rx="14" fill="#2f6b32"/>
  <text x="46" y="477" font-family="Segoe UI, Arial" font-size="12" font-weight="700" fill="#fff">Activer les alertes</text>
  <rect x="192" y="452" width="150" height="40" rx="14" fill="#fff" stroke="#d7e0d1"/>
  <text x="214" y="477" font-family="Segoe UI, Arial" font-size="12" font-weight="600" fill="#1c2a1a">Voir le site web</text>
  <text x="16" y="552" font-family="Segoe UI, Arial" font-size="20" font-weight="700" fill="#1c2a1a">3 actions maintenant</text>
  <rect x="16" y="568" width="358" height="80" rx="16" fill="#fff" stroke="#d7e0d1"/>
  <circle cx="44" cy="608" r="14" fill="#2f6b32"/>
  <text x="40" y="613" font-family="Segoe UI, Arial" font-size="13" font-weight="700" fill="#fff">1</text>
  <text x="68" y="606" font-family="Segoe UI, Arial" font-size="14" font-weight="700" fill="#1c2a1a">Chasser et surveiller</text>
  <text x="68" y="624" font-family="Segoe UI, Arial" font-size="14" font-weight="700" fill="#1c2a1a">les oiseaux sur mil et sorgho.</text>
  <rect y="760" width="390" height="84" fill="#fffdf8"/>
  <line y1="760" x1="0" x2="390" stroke="#d7e0d1"/>
  <rect x="18" y="772" width="62" height="58" rx="14" fill="#e8f5d8"/>
  <text x="30" y="806" font-family="Segoe UI, Arial" font-size="11" font-weight="700" fill="#2f6b32">Accueil</text>
  <text x="96" y="806" font-family="Segoe UI, Arial" font-size="11" font-weight="600" fill="#5b6857">Conseils</text>
  <text x="168" y="806" font-family="Segoe UI, Arial" font-size="11" font-weight="600" fill="#5b6857">Meteo</text>
  <text x="230" y="798" font-family="Segoe UI, Arial" font-size="11" font-weight="600" fill="#5b6857">ZAT /</text>
  <text x="226" y="812" font-family="Segoe UI, Arial" font-size="11" font-weight="600" fill="#5b6857">services</text>
  <text x="316" y="806" font-family="Segoe UI, Arial" font-size="11" font-weight="600" fill="#5b6857">Plus</text>
</svg>
